<svg width="50" height="50" viewBox="0 0 50 50" fill="none" xmlns="http://www.w3.org/2000/svg">
<g filter="url(#filter0_d_82_176)">
<circle cx="25" cy="25" r="15" fill="url(#paint0_linear_82_176)"/>
</g>
<path fill-rule="evenodd" clip-rule="evenodd" d="M22.1423 18.9688C22.0477 18.684 22.2596 18.3903 22.5597 18.3903H26.7061C26.9008 18.3903 27.0723 18.5182 27.1277 18.7048L29.1971 25.6691C29.2809 25.9511 29.0696 26.2342 28.7755 26.2342H26.2609C26.1159 26.2342 26.0105 26.3721 26.0487 26.512L27.2868 31.0519C27.4156 31.5243 26.7924 31.822 26.5058 31.4251L20.8684 23.6157C20.6584 23.3249 20.8662 22.9185 21.225 22.9185H23.1496C23.2996 22.9185 23.4056 22.7716 23.3583 22.6292L22.1423 18.9688Z" fill="white"/>
<defs>
<filter id="filter0_d_82_176" x="0" y="0" width="50" height="50" filterUnits="userSpaceOnUse" color-interpolation-filters="sRGB">
<feFlood flood-opacity="0" result="BackgroundImageFix"/>
<feColorMatrix in="SourceAlpha" type="matrix" values="0 0 0 0 0 0 0 0 0 0 0 0 0 0 0 0 0 0 127 0" result="hardAlpha"/>
<feOffset/>
<feGaussianBlur stdDeviation="5"/>
<feColorMatrix type="matrix" values="0 0 0 0 0.956863 0 0 0 0 0.835294 0 0 0 0 0.337255 0 0 0 0.7 0"/>
<feBlend mode="normal" in2="BackgroundImageFix" result="effect1_dropShadow_82_176"/>
<feBlend mode="normal" in="SourceGraphic" in2="effect1_dropShadow_82_176" result="shape"/>
</filter>
<linearGradient id="paint0_linear_82_176" x1="10.1934" y1="10" x2="10.1934" y2="39.6132" gradientUnits="userSpaceOnUse">
<stop stop-color="#FBE273"/>
<stop offset="1" stop-color="#EDD53E"/>
</linearGradient>
</defs>
</svg>
