<svg width="50" height="50" viewBox="0 0 50 50" fill="none" xmlns="http://www.w3.org/2000/svg">
<g filter="url(#filter0_d_82_182)">
<circle cx="25" cy="25" r="15" fill="url(#paint0_linear_82_182)"/>
</g>
<g clip-path="url(#clip0_82_182)">
<path fill-rule="evenodd" clip-rule="evenodd" d="M20.5096 29.3939L22.9155 28.6963L24.9935 32.4958C24.9962 32.5007 25.0033 32.5007 25.006 32.4958L27.084 28.6963L29.49 29.3939C29.4953 29.3954 29.5004 29.3904 29.4987 29.385L28.801 27.0267L32.4958 25.006C32.5007 25.0033 32.5007 24.9962 32.4958 24.9935L28.7706 22.9561L29.4987 20.4949C29.5004 20.4895 29.4953 20.4845 29.49 20.486L27.0276 21.2L25.006 17.5037C25.0033 17.4988 24.9962 17.4988 24.9935 17.5037L22.9719 21.2L20.5096 20.486C20.5042 20.4845 20.4992 20.4895 20.5008 20.4949L21.2289 22.9561L17.5037 24.9935C17.4988 24.9962 17.4988 25.0033 17.5037 25.006L21.1985 27.0267L20.5008 29.385C20.4992 29.3904 20.5042 29.3954 20.5096 29.3939ZM22.3765 25.0257L24.081 25.9579L25.0132 27.6623C25.0159 27.6672 25.023 27.6672 25.0257 27.6623L25.9579 25.9579L27.6623 25.0257C27.6672 25.023 27.6672 25.0159 27.6623 25.0132L25.9579 24.081L25.0257 22.3766C25.023 22.3716 25.0159 22.3716 25.0132 22.3766L24.081 24.081L22.3765 25.0132C22.3716 25.0159 22.3716 25.023 22.3765 25.0257Z" fill="white"/>
</g>
<defs>
<filter id="filter0_d_82_182" x="0" y="0" width="50" height="50" filterUnits="userSpaceOnUse" color-interpolation-filters="sRGB">
<feFlood flood-opacity="0" result="BackgroundImageFix"/>
<feColorMatrix in="SourceAlpha" type="matrix" values="0 0 0 0 0 0 0 0 0 0 0 0 0 0 0 0 0 0 127 0" result="hardAlpha"/>
<feOffset/>
<feGaussianBlur stdDeviation="5"/>
<feColorMatrix type="matrix" values="0 0 0 0 0.94902 0 0 0 0 0.580392 0 0 0 0 0.913725 0 0 0 0.7 0"/>
<feBlend mode="normal" in2="BackgroundImageFix" result="effect1_dropShadow_82_182"/>
<feBlend mode="normal" in="SourceGraphic" in2="effect1_dropShadow_82_182" result="shape"/>
</filter>
<linearGradient id="paint0_linear_82_182" x1="10.2462" y1="10" x2="10.2462" y2="39.5076" gradientUnits="userSpaceOnUse">
<stop stop-color="#F3A7E7"/>
<stop offset="1" stop-color="#EC8CE5"/>
</linearGradient>
<clipPath id="clip0_82_182">
<rect width="15" height="15" fill="white" transform="translate(17.5 17.5)"/>
</clipPath>
</defs>
</svg>
