<svg width="50" height="50" viewBox="0 0 50 50" fill="none" xmlns="http://www.w3.org/2000/svg">
<g filter="url(#filter0_d_82_188)">
<circle cx="25" cy="25" r="15" fill="url(#paint0_linear_82_188)"/>
</g>
<g clip-path="url(#clip0_82_188)">
<path fill-rule="evenodd" clip-rule="evenodd" d="M20.0869 18.747C20.2685 18.0303 20.9178 17.5 21.6909 17.5C22.2708 17.5 22.7811 17.7984 23.0765 18.25H23.5603C23.8609 17.9416 24.2808 17.75 24.7455 17.75C25.4267 17.75 26.0118 18.1618 26.2655 18.75H26.6705C26.9243 18.5916 27.2242 18.5 27.5454 18.5C28.2267 18.5 28.8118 18.9118 29.0655 19.5H30.1669C30.1763 19.5 30.1851 19.5025 30.1927 19.507C30.243 19.5024 30.294 19.5 30.3454 19.5C31.2592 19.5 32 20.2408 32 21.1546V26.1158L32 26.125L32 26.1342V26.2057C32 26.2359 31.9992 26.2661 31.9975 26.2961C31.898 29.7378 28.8032 32.5 25 32.5C21.134 32.5 18 29.6458 18 26.125C18 24.4255 18.7302 22.8813 19.9205 21.7385C19.9175 23.3954 19.9455 25.1082 20.0745 25.0788C20.42 25.0001 20.1501 19.8683 20.0869 18.747Z" fill="white"/>
</g>
<defs>
<filter id="filter0_d_82_188" x="0" y="0" width="50" height="50" filterUnits="userSpaceOnUse" color-interpolation-filters="sRGB">
<feFlood flood-opacity="0" result="BackgroundImageFix"/>
<feColorMatrix in="SourceAlpha" type="matrix" values="0 0 0 0 0 0 0 0 0 0 0 0 0 0 0 0 0 0 127 0" result="hardAlpha"/>
<feOffset/>
<feGaussianBlur stdDeviation="5"/>
<feColorMatrix type="matrix" values="0 0 0 0 0.831373 0 0 0 0 0.266667 0 0 0 0 0.364706 0 0 0 0.7 0"/>
<feBlend mode="normal" in2="BackgroundImageFix" result="effect1_dropShadow_82_188"/>
<feBlend mode="normal" in="SourceGraphic" in2="effect1_dropShadow_82_188" result="shape"/>
</filter>
<linearGradient id="paint0_linear_82_188" x1="10.1934" y1="10" x2="10.1934" y2="39.6132" gradientUnits="userSpaceOnUse">
<stop stop-color="#E74347"/>
<stop offset="1" stop-color="#CE4265"/>
</linearGradient>
<clipPath id="clip0_82_188">
<rect width="15" height="15" fill="white" transform="translate(17.5 17.5)"/>
</clipPath>
</defs>
</svg>
