<svg width="50" height="50" viewBox="0 0 50 50" fill="none" xmlns="http://www.w3.org/2000/svg">
<g filter="url(#filter0_d_82_161)">
<circle cx="25" cy="25" r="15" fill="url(#paint0_linear_82_161)"/>
</g>
<g clip-path="url(#clip0_82_161)">
<path fill-rule="evenodd" clip-rule="evenodd" d="M20.8037 30.3951C20.7996 30.3951 20.7968 30.3911 20.7981 30.3873L24.6277 19.5664C24.6285 19.5641 24.6307 19.5625 24.6332 19.5625H28.7214C28.7239 19.5625 28.7261 19.5641 28.7269 19.5665L32.4997 30.3873C32.501 30.3912 32.4982 30.3951 32.4941 30.3951H20.9188H20.8037ZM17.506 30.4375C17.5018 30.4375 17.499 30.4334 17.5004 30.4295L20.3522 22.8161C20.3531 22.8138 20.3552 22.8123 20.3577 22.8123H22.8355C22.8397 22.8123 22.8425 22.8163 22.8411 22.8202L20.0835 30.4336C20.0827 30.4359 20.0805 30.4375 20.078 30.4375H17.506Z" fill="white"/>
</g>
<defs>
<filter id="filter0_d_82_161" x="0" y="0" width="50" height="50" filterUnits="userSpaceOnUse" color-interpolation-filters="sRGB">
<feFlood flood-opacity="0" result="BackgroundImageFix"/>
<feColorMatrix in="SourceAlpha" type="matrix" values="0 0 0 0 0 0 0 0 0 0 0 0 0 0 0 0 0 0 127 0" result="hardAlpha"/>
<feOffset/>
<feGaussianBlur stdDeviation="5"/>
<feColorMatrix type="matrix" values="0 0 0 0 0.847059 0 0 0 0 0.509804 0 0 0 0 0.333333 0 0 0 0.7 0"/>
<feBlend mode="normal" in2="BackgroundImageFix" result="effect1_dropShadow_82_161"/>
<feBlend mode="normal" in="SourceGraphic" in2="effect1_dropShadow_82_161" result="shape"/>
</filter>
<linearGradient id="paint0_linear_82_161" x1="10.1934" y1="10" x2="10.1934" y2="39.6132" gradientUnits="userSpaceOnUse">
<stop stop-color="#D29463"/>
<stop offset="1" stop-color="#DC7545"/>
</linearGradient>
<clipPath id="clip0_82_161">
<rect width="15" height="15" fill="white" transform="translate(17.5 17.5)"/>
</clipPath>
</defs>
</svg>
