<svg width="50" height="50" viewBox="0 0 50 50" fill="none" xmlns="http://www.w3.org/2000/svg">
<g filter="url(#filter0_d_82_173)">
<circle cx="25" cy="25" r="15" fill="url(#paint0_linear_82_173)"/>
</g>
<path fill-rule="evenodd" clip-rule="evenodd" d="M31.5918 25C31.5918 28.6405 28.6405 31.5918 25 31.5918C21.3595 31.5918 18.4082 28.6405 18.4082 25C18.4082 21.3595 21.3595 18.4082 25 18.4082C28.6405 18.4082 31.5918 21.3595 31.5918 25ZM28.7667 25C28.7667 27.0803 27.0803 28.7667 25 28.7667C22.9197 28.7667 21.2333 27.0803 21.2333 25C21.2333 22.9197 22.9197 21.2333 25 21.2333C27.0803 21.2333 28.7667 22.9197 28.7667 25Z" fill="white"/>
<defs>
<filter id="filter0_d_82_173" x="0" y="0" width="50" height="50" filterUnits="userSpaceOnUse" color-interpolation-filters="sRGB">
<feFlood flood-opacity="0" result="BackgroundImageFix"/>
<feColorMatrix in="SourceAlpha" type="matrix" values="0 0 0 0 0 0 0 0 0 0 0 0 0 0 0 0 0 0 127 0" result="hardAlpha"/>
<feOffset/>
<feGaussianBlur stdDeviation="5"/>
<feColorMatrix type="matrix" values="0 0 0 0 0.364706 0 0 0 0 0.34902 0 0 0 0 0.415686 0 0 0 0.7 0"/>
<feBlend mode="normal" in2="BackgroundImageFix" result="effect1_dropShadow_82_173"/>
<feBlend mode="normal" in="SourceGraphic" in2="effect1_dropShadow_82_173" result="shape"/>
</filter>
<linearGradient id="paint0_linear_82_173" x1="10.1934" y1="10" x2="10.1934" y2="39.6132" gradientUnits="userSpaceOnUse">
<stop stop-color="#A3A49E"/>
<stop offset="1" stop-color="#9298A4"/>
</linearGradient>
</defs>
</svg>
